<svg xmlns="http://www.w3.org/2000/svg" xmlns:xlink="http://www.w3.org/1999/xlink" viewBox="0 0 99.59 81.41"><defs><style>.cls-1{fill:#fff;}.cls-2{clip-path:url(#clip-path);}</style><clipPath id="clip-path"><path class="cls-1" d="M73.19,44h0M14.72,45.24a6.69,6.69,0,0,1,6.21-2.09,15.93,15.93,0,0,1,3.18,1.33.53.53,0,0,1,.27.82,11.37,11.37,0,0,1-1.73,2.92A6.75,6.75,0,0,1,18.76,50a3.66,3.66,0,0,1-.57,0c-2.44,0-4.61-2.45-3.47-4.83M40.93,15.43c-.14-.16,0-.29.1-.44A24.44,24.44,0,0,1,43,11.82c2-3.07,4.32-6.81,8.24-7.34,1.57-.2,3.92,1.22,3.67,3C54.41,9.64,54,9,53,10.66c-2.95,2.85-7.2,3.58-11,4.77-.23,0-.51.11-.77.11a.54.54,0,0,1-.35-.11M55.85,0A25.2,25.2,0,0,0,50.06.9C43.18,3.54,39.92,9.71,36.38,15.71a1.22,1.22,0,0,1-1.24.79c-.57,0-1.15,0-1.72,0s-1.25,0-1.87,0c-.86-.05-1.72,0-2.58,0s-2,0-2.95-.06c-2.56.1-5.09-.23-7.65-.35-3.42-.4-7-.57-10.08-2.3C6.94,13,5.67,11.49,6.79,10,7.49,8.8,9.51,7.7,10.85,8.3c.28.12,1,0,1.09-.26s-.2-.27-.35-.37a5.25,5.25,0,0,0-1-.33A5,5,0,0,0,7.84,7c-1.93.6-4,.78-5.56,2.22C1.13,10.19,0,11.13.22,12.92c0,2.13,1.71,3.76,3.48,4.66,4.88,2.14,10.21,2,15.48,1.76,1.77-.06,3.53-.13,5.26-.1,3.5,0,6.87-.87,10.33-1.19.17,0,.39,0,.24.26-2,4-3.29,8.39-5.06,12.52-1,2.12-1.84,4.25-2.6,6.46a26.41,26.41,0,0,1-1,2.51c-.15.36-.25.38-.53.17-4-2.44-9.61-3.56-13.43-.13-3.75,3-4.63,9.91-.79,13.12,6.25,3.54,11-1.83,14.46-6.52.23-.28.36-.33.59-.11,2.11,1.91,4,4,6.27,5.77a32.35,32.35,0,0,0,23,6.72,9.73,9.73,0,0,0,1.51-.17c1-.15,2-.29,2,0,2.48,7.92,6,15.72,12.35,21.29.34.4,1.33,1.51,1.86,1.28.34-.52-.18-1.49-.12-2.15a52.52,52.52,0,0,1,.33-10.18c.31-6,2.09-11.82,3.72-17.61,1.28-4.4,1.84-9.08,3.82-13.24,0,0,0,0,0,0,.76-3.09,2.6-7.38,5.32-9.13.17-.34.55-.19.84-.31a3,3,0,0,1,1.44-.26,3.84,3.84,0,0,1,1.78.14,4.54,4.54,0,0,0,1.54.18,1.51,1.51,0,0,1,.5-1,7.09,7.09,0,0,1,5.7-1.87c.29-.16.61-.11.86-.36.16-.59-.09-.52-.5-.45a1.43,1.43,0,0,1-1.65-.65.46.46,0,0,1-.38-.14c-.74.05-1.15-.57-1.72-.87-1.3-.62-2.57-1.49-4-1.56A9.48,9.48,0,0,0,87,24.05a10.34,10.34,0,0,0-2,2.53,48.37,48.37,0,0,0-2.68,5.09c-.48,1.32-1.27,2.55-1.36,4-1.07,3.65-2.54,7.12-3.57,10.79-2.79,8.14-5.65,16.33-7,24.85a40.94,40.94,0,0,1-4.77-9.87c-.27-.82-1.5-3.94-.93-4.54,4.45-2.18,11.61-6.21,9-12.2h0c-.38-.08-.3-.5-.52-.7a.17.17,0,0,1-.17-.08h0v0a.52.52,0,0,1-.42-.28l-.38-.14c-.54-.08-2.4-.54-2.49.24,0,.36.36.33.64.31h.22a.13.13,0,0,1,.22,0c.23,0,.46-.12.67.07a.79.79,0,0,1,.51.28.24.24,0,0,1,.2.2.25.25,0,0,1,.21.25.38.38,0,0,1,.24.32,2,2,0,0,1,.38,1.2c.36.89-.26,2.08-.62,2.87-.93,2-3.44,2.34-5.32,3.09a16.89,16.89,0,0,1-3.36,1c-.89.22-.71-1.59-1-2.17C61.11,45.42,59.92,39.69,58,34.16c-.73-2-1.68-4-2.24-6-.56-1.62-1.21-3.5-2.94-4.12a4.3,4.3,0,0,0-3.23.12c-2.37.83-4.85,2.28-5.34,5a22.47,22.47,0,0,0-.1,3c0,.3.13.39.43.25s.25-.36.23-.6c-.64-2.91,3.1-5.37,5-2.6a14.91,14.91,0,0,1,1,1.84A174.5,174.5,0,0,1,56.26,48.1c.44,1.82,1.08,3.57,1.6,5.36.06.24,0,.28-.19.29-6.58.36-13.88,0-19.34-4.1-1.83-1.47-3.72-2.84-5.54-4.33-5.71-5.47-4.74-1.69-1.69-8.67,2.5-5.66,4.76-11.42,7.32-17,.2-.46.7-.79.84-1.3a1.44,1.44,0,0,1,1.13-.94c5.85-1.89,15.93-3.46,19.9-8.27,2.24-2.73,2-6.82-1.57-8.24A5.89,5.89,0,0,0,56.1,0h-.25"/></clipPath></defs><title>Asset 2</title><g id="Layer_2" data-name="Layer 2"><g id="Layer_1-2" data-name="Layer 1"><path class="cls-1" d="M73.19,44h0M14.72,45.24a6.69,6.69,0,0,1,6.21-2.09,15.93,15.93,0,0,1,3.18,1.33.53.53,0,0,1,.27.82,11.37,11.37,0,0,1-1.73,2.92A6.75,6.75,0,0,1,18.76,50a3.66,3.66,0,0,1-.57,0c-2.44,0-4.61-2.45-3.47-4.83M40.93,15.43c-.14-.16,0-.29.1-.44A24.44,24.44,0,0,1,43,11.82c2-3.07,4.32-6.81,8.24-7.34,1.57-.2,3.92,1.22,3.67,3C54.41,9.64,54,9,53,10.66c-2.95,2.85-7.2,3.58-11,4.77-.23,0-.51.11-.77.11a.54.54,0,0,1-.35-.11M55.85,0A25.2,25.2,0,0,0,50.06.9C43.18,3.54,39.92,9.71,36.38,15.71a1.22,1.22,0,0,1-1.24.79c-.57,0-1.15,0-1.72,0s-1.25,0-1.87,0c-.86-.05-1.72,0-2.58,0s-2,0-2.95-.06c-2.56.1-5.09-.23-7.65-.35-3.42-.4-7-.57-10.08-2.3C6.94,13,5.67,11.49,6.79,10,7.49,8.8,9.51,7.7,10.85,8.3c.28.12,1,0,1.09-.26s-.2-.27-.35-.37a5.25,5.25,0,0,0-1-.33A5,5,0,0,0,7.84,7c-1.93.6-4,.78-5.56,2.22C1.13,10.19,0,11.13.22,12.92c0,2.13,1.71,3.76,3.48,4.66,4.88,2.14,10.21,2,15.48,1.76,1.77-.06,3.53-.13,5.26-.1,3.5,0,6.87-.87,10.33-1.19.17,0,.39,0,.24.26-2,4-3.29,8.39-5.06,12.52-1,2.12-1.84,4.25-2.6,6.46a26.41,26.41,0,0,1-1,2.51c-.15.36-.25.38-.53.17-4-2.44-9.61-3.56-13.43-.13-3.75,3-4.63,9.91-.79,13.12,6.25,3.54,11-1.83,14.46-6.52.23-.28.36-.33.59-.11,2.11,1.91,4,4,6.27,5.77a32.35,32.35,0,0,0,23,6.72,9.73,9.73,0,0,0,1.51-.17c1-.15,2-.29,2,0,2.48,7.92,6,15.72,12.35,21.29.34.4,1.33,1.51,1.86,1.28.34-.52-.18-1.49-.12-2.15a52.52,52.52,0,0,1,.33-10.18c.31-6,2.09-11.82,3.72-17.61,1.28-4.4,1.84-9.08,3.82-13.24,0,0,0,0,0,0,.76-3.09,2.6-7.38,5.32-9.13.17-.34.55-.19.84-.31a3,3,0,0,1,1.44-.26,3.84,3.84,0,0,1,1.78.14,4.54,4.54,0,0,0,1.54.18,1.51,1.51,0,0,1,.5-1,7.09,7.09,0,0,1,5.7-1.87c.29-.16.61-.11.86-.36.16-.59-.09-.52-.5-.45a1.43,1.43,0,0,1-1.65-.65.46.46,0,0,1-.38-.14c-.74.05-1.15-.57-1.72-.87-1.3-.62-2.57-1.49-4-1.56A9.48,9.48,0,0,0,87,24.05a10.34,10.34,0,0,0-2,2.53,48.37,48.37,0,0,0-2.68,5.09c-.48,1.32-1.27,2.55-1.36,4-1.07,3.65-2.54,7.12-3.57,10.79-2.79,8.14-5.65,16.33-7,24.85a40.94,40.94,0,0,1-4.77-9.87c-.27-.82-1.5-3.94-.93-4.54,4.45-2.18,11.61-6.21,9-12.2h0c-.38-.08-.3-.5-.52-.7a.17.17,0,0,1-.17-.08h0v0a.52.52,0,0,1-.42-.28l-.38-.14c-.54-.08-2.4-.54-2.49.24,0,.36.36.33.64.31h.22a.13.13,0,0,1,.22,0c.23,0,.46-.12.67.07a.79.79,0,0,1,.51.28.24.24,0,0,1,.2.2.25.25,0,0,1,.21.25.38.38,0,0,1,.24.32,2,2,0,0,1,.38,1.2c.36.89-.26,2.08-.62,2.87-.93,2-3.44,2.34-5.32,3.09a16.89,16.89,0,0,1-3.36,1c-.89.22-.71-1.59-1-2.17C61.11,45.42,59.92,39.69,58,34.16c-.73-2-1.68-4-2.24-6-.56-1.62-1.21-3.5-2.94-4.12a4.3,4.3,0,0,0-3.23.12c-2.37.83-4.85,2.28-5.34,5a22.47,22.47,0,0,0-.1,3c0,.3.13.39.43.25s.25-.36.23-.6c-.64-2.91,3.1-5.37,5-2.6a14.91,14.91,0,0,1,1,1.84A174.5,174.5,0,0,1,56.26,48.1c.44,1.82,1.08,3.57,1.6,5.36.06.24,0,.28-.19.29-6.58.36-13.88,0-19.34-4.1-1.83-1.47-3.72-2.84-5.54-4.33-5.71-5.47-4.74-1.69-1.69-8.67,2.5-5.66,4.76-11.42,7.32-17,.2-.46.7-.79.84-1.3a1.44,1.44,0,0,1,1.13-.94c5.85-1.89,15.93-3.46,19.9-8.27,2.24-2.73,2-6.82-1.57-8.24A5.89,5.89,0,0,0,56.1,0h-.25"/><g class="cls-2"><rect class="cls-1" width="99.59" height="81.41"/></g></g></g></svg>